
<svg width="100" height="100" viewBox="0 0 100 100" xmlns="http://www.w3.org/2000/svg">
  <g fill="#2F5233" opacity="0.1">
    <path d="M20,20 C30,10 50,10 60,20 C70,30 70,50 60,60 C50,70 30,70 20,60 C10,50 10,30 20,20 Z M40,45 C45,40 45,30 40,25 C35,20 25,20 20,25 C15,30 15,40 20,45 C25,50 35,50 40,45 Z"/>
    <path d="M80,80 C90,70 90,50 80,40 C70,30 50,30 40,40 C30,50 30,70 40,80 C50,90 70,90 80,80 Z M60,55 C65,50 65,40 60,35 C55,30 45,30 40,35 C35,40 35,50 40,55 C45,60 55,60 60,55 Z"/>
  </g>
</svg>
